# xmcd
#
# Track frame offsets:
#	150
#	23015
#	46757
#	60455
#	82315
#	109135
#	125670
#	142047
#	153700
#	170675
#	192097
#	207935
#	223110
#	242900
#
# Disc length: 3458 seconds
#
# Revision: 1
# Processed by: cddbd v1.5.2PL0 Copyright (c) Steve Scherf et al.
# Submitted via: EZCDAudioConverter 8.2.2.1
#
DISCID=d10d800e
DTITLE=LEANDRO and LEONARDO - E-COLLECTION - CD 2 - RARIDADES [CD 5050466472021)
DTITLE=WARNER MUSIC BRASIL LTDA
DYEAR=2003
DGENRE=SERTANEJO
TTITLE0=EU JURO (I SWEAR) (AO VIVO) (BY GILMAR SINISTRO)
TTITLE1=DISPARADA (AO VIVO) (PART. ESP. CHITÃOZINHO and XORORÓ and ZEZÉ DI CAMARGO
TTITLE1=and LUCIANO) (BY GILMAR SINISTRO)
TTITLE2=AVE MARIA (AO VIVO)  (PART. ESP. CHITÃOZINHO and XORORÓ and ZEZÉ DI CAMARG
TTITLE2=O and LUCIANO) (BY GILMAR SINISTRO)
TTITLE3=ROMARIA (AO VIVO) CALIX BENTO (PART. ESP. CHITÃOZINHO and XORORÓ and ZEZÉ 
TTITLE3=DI CAMARGO and LUCIANO) (BY GILMAR SINISTRO)
TTITLE4=ANDANÇA AO VIVO (PART. ESP. CHITÃOZINHO and XORORÓ and ZEZÉ DI CAMARGO and L
TTITLE4=UCIANO) (BY GILMAR SINISTRO)
TTITLE5=CERVEJA (AO VIVO) (BY GILMAR SINISTRO)
TTITLE6=PENSE EM MIM (AO VIVO) (BY GILMAR SINISTRO)
TTITLE7=ESTRADA DA VIDA (AO VIVO) (PART. ESP. CHITÃOZINHO and XORORÓ and ZEZÉ DI C
TTITLE7=AMARGO and LUCIANO) (BY GILMAR SINISTRO)
TTITLE8=CANÇÃO DA AMÉRICA (AO VIVO) (PART. ESP. DANIEL, CHITÃOZINHO and XORORÓ &
TTITLE8=ZEZÉ DI CAMARGO and LUCIANO) (BY GILMAR SINISTRO)
TTITLE9=MARCAS DO QUE SE FOI (AO VIVO) (PART. ESP. CHITÃOZINHO and XORORÓ and ZEZÉ
TTITLE9=DI CAMARGO and LUCIANO) (BY GILMAR SINISTRO)
TTITLE10=ENTRE TAPAS E BEIJOS (AO VIVO) (PART. ESP. CHITÃOZINHO and XORORÓ and ZEZ
TTITLE10=É DI CAMARGO and LUCIANO) (BY GILMAR SINISTRO)
TTITLE11=MEXE MEXE (AO VIVO) BY GILMAR SINISTRO)
TTITLE12=EU SOU DESEJO, VOCÊ É PAIXÃO (RIGHT HERE WAITING) (AO VIVO) (BY GILMA
TTITLE12=R SINISTRO)
TTITLE13=NÃO OLHE ASSIM (AO VIVO) (BY GILMAR SINISTRO)
EXTD=
EXTT0=
EXTT1=
EXTT2=
EXTT3=
EXTT4=
EXTT5=
EXTT6=
EXTT7=
EXTT8=
EXTT9=
EXTT10=
EXTT11=
EXTT12=
EXTT13=
PLAYORDER=
